<svg width="939" height="939" viewBox="0 0 939 939" fill="none" xmlns="http://www.w3.org/2000/svg">
<rect width="939" height="939" fill="white"/>
<path d="M469 174C634.133 174 768 307.195 768 471.5C768 566.213 723.515 650.586 654.202 705.069C674.339 683.852 691.479 659.573 704.909 632.967C736.698 587.075 755.312 531.451 755.312 471.5C755.312 314.167 627.126 186.624 469 186.624C310.874 186.624 182.688 314.167 182.688 471.5C182.688 565.314 228.265 648.535 298.589 700.441C301.117 708.785 304.481 716.071 308.149 722.327C225.075 669.476 170 576.888 170 471.5C170 307.195 303.867 174 469 174Z" fill="black"/>
<path d="M469 174C529.767 174 586.299 192.037 633.485 223.023C618.069 220.379 602.201 219 586 219C485.86 219 398.452 271.699 351.838 349.973C324.487 364.773 306 393.05 306 425.5C306 440.124 309.755 453.899 316.384 465.977C316.13 470.62 316 475.295 316 480C316 502.126 318.849 523.609 324.21 544.125C308.812 583.578 295.11 632.396 294.065 664.644C293.267 689.231 299.952 708.348 308.149 722.327C225.075 669.476 170 576.888 170 471.5C170 307.195 303.867 174 469 174Z" fill="black"/>
<path d="M670.567 583.908C678.024 580.289 687.237 580.099 695.357 582.805C703.67 585.576 709.78 590.971 711.866 597.521C691.308 652.793 656.197 699.146 612.095 730.15C612.777 729.284 613.45 728.405 614.113 727.51C619.97 716.328 621.568 701.95 615.71 683.313C614.397 679.135 612.013 673.46 609.016 666.94C633.918 643.885 654.976 615.913 670.567 583.908ZM694.317 512.912C700.447 509.432 706.416 508.223 711.886 508.553C718.693 508.964 725.115 511.785 730.452 516.24C728.142 540.177 723.29 563.228 716.215 585.026C711.715 579.56 705.317 575.585 698.519 573.319C691.567 571.001 683.713 570.282 676.174 571.666C679.954 562.876 683.333 553.809 686.278 544.479C689.589 533.985 692.26 523.448 694.317 512.912ZM698.055 429.615C710.349 423.889 721.831 424.669 726.929 425.961C730.252 444.708 732 464.118 732 484C732 490.934 731.785 497.812 731.367 504.624C725.75 501.193 719.347 498.985 712.49 498.571C707.212 498.252 701.791 499.005 696.387 500.968C700.029 476.914 700.497 452.952 698.055 429.615ZM697.781 360.804C701.64 359.946 705.252 359.886 707.798 360.116C715.048 377.65 720.805 396.164 724.883 415.438C717.822 414.537 707.61 414.921 696.778 419.273C694.277 401.734 690.127 384.598 684.444 368.097C688.191 364.062 693.024 361.863 697.781 360.804ZM678.101 324.692C682.069 323.073 686.445 322.814 689.46 323.105C694.519 331.758 699.181 340.746 703.416 350.034C700.987 350.13 698.336 350.436 695.609 351.042C690.738 352.126 685.437 354.216 680.726 357.954C677.418 349.448 673.694 341.13 669.573 333.033C671.34 328.664 674.52 326.153 678.101 324.692ZM673 328C673.01 328 673.02 327.999 673.031 327.999C673.015 327.999 673 327.999 672.985 327.999C672.99 327.999 672.995 328 673 328ZM666.5 305C671.741 301.927 679.415 306.195 682.489 311.435C682.765 311.907 683.001 312.391 683.2 312.883C683.199 312.879 683.198 312.875 683.197 312.872C683.267 312.981 683.335 313.092 683.406 313.202C680.493 313.508 677.365 314.192 674.323 315.433C670.493 316.996 666.776 319.465 663.866 323.126C663.743 322.944 663.624 322.756 663.511 322.564C660.438 317.323 661.26 308.074 666.5 305Z" fill="#9C1414"/>
<path d="M395.499 347C438.301 347 472.999 382.37 472.999 426C472.999 434.509 471.679 442.704 469.236 450.384C482.661 453.469 494.823 459.646 505.164 470.271C516.697 444.221 543.177 426 573.999 426C615.421 426 648.999 458.907 648.999 499.5C648.999 540.093 615.421 573 573.999 573C565.391 573 557.122 571.577 549.423 568.961C552.983 578.033 556.03 585.478 558.999 593C566.499 612 591.999 657.5 597.499 675C602.999 692.5 601.499 706 595.999 716.5C554.499 772.5 472.999 768 438.999 764.5C404.999 761 352.499 745.5 344.999 740C337.498 734.499 308.999 708.999 310.499 660.5C311.302 634.529 320.566 596.945 331.915 563.562L380.869 554.924C382.229 554.684 383.137 553.387 382.897 552.027C382.657 550.668 381.36 549.76 380 550L333.785 558.155C336.541 550.317 339.394 542.766 342.261 535.717L381.992 543.897L382.245 543.937C383.506 544.065 384.683 543.221 384.944 541.953C385.223 540.601 384.352 539.279 383 539L344.208 531.013C346.964 524.47 349.713 518.435 352.379 513.099L387.241 536.17C388.393 536.931 389.943 536.616 390.705 535.465C391.467 534.313 391.151 532.762 390 532L354.681 508.627C357.099 504.075 359.425 500.169 361.602 497.061C335.788 484.241 317.999 457.239 317.999 426C317.999 382.37 352.697 347 395.499 347ZM454.939 569.421L453 571L496.716 624.646C497.588 625.717 499.162 625.878 500.233 625.006C501.303 624.134 501.464 622.559 500.592 621.488L456.876 567.842L454.939 569.421ZM465.777 557.326C464.487 556.836 463.043 557.484 462.552 558.774C462.061 560.065 462.71 561.509 464 562L535 589C536.291 589.491 537.735 588.842 538.226 587.552C538.716 586.261 538.068 584.817 536.777 584.326L465.777 557.326ZM456.876 567.842C456.004 566.772 454.43 566.611 453.359 567.482C452.289 568.355 452.128 569.93 453 571L456.876 567.842ZM421.78 537.809C415.206 535.705 408.784 537.411 407.438 541.619C406.091 545.827 410.33 550.944 416.905 553.048C423.481 555.151 429.902 553.445 431.248 549.237C432.594 545.029 428.356 539.912 421.78 537.809ZM459.92 542.001C458.54 542.023 457.438 543.16 457.46 544.541C457.482 545.921 458.62 547.022 460 547L522 546C523.381 545.978 524.482 544.84 524.46 543.46C524.439 542.166 523.438 541.117 522.175 541.01L521.92 541.001L459.92 542.001Z" fill="#9C1414"/>
</svg>
